<svg xmlns="http://www.w3.org/2000/svg" xmlns:xlink="http://www.w3.org/1999/xlink" id="Layer_1" x="0px" y="0px" viewBox="0 0 800 800" style="enable-background:new 0 0 800 800;" xml:space="preserve"><style type="text/css">	.st0{clip-path:url(#SVGID_00000174559608488763004120000011220821449337120947_);fill:#006839;}	.st1{clip-path:url(#SVGID_00000174559608488763004120000011220821449337120947_);fill:#F58A1F;}</style><g>	<defs>		<rect id="SVGID_1_" x="4.83" y="110.09" width="790" height="579.33"></rect>	</defs>	<clipPath id="SVGID_00000003106944465457998990000006477718501262822058_">		<use xlink:href="#SVGID_1_" style="overflow:visible;"></use>	</clipPath>	<path style="clip-path:url(#SVGID_00000003106944465457998990000006477718501262822058_);fill:#006839;" d="M584.16,399.49H531.5  v210.86h52.67V399.49z M320.83,636.72H215.5v52.71h105.33V636.72z M162.83,373.42h52.67v-52.72h-52.67V373.42z M215.5,399.49  v158.14H110.17c-29.09,0-52.67-23.6-52.67-52.71c0-29.11,23.58-52.71,52.67-52.71h52.67v-52.72h-52.67  c-58.18,0-105.33,47.2-105.33,105.43c0,58.23,47.16,105.43,105.33,105.43h158V452.21h52.67v158.14h158V399.49h-52.67v158.14H373.5  V399.49H215.5z M426.16,320.69H320.83v52.72h105.33V320.69z M689.33,248.29H636.5c-3.35,40.59-37.26,72.49-78.67,72.49  c-43.63,0-79-35.4-79-79.09c0-41.43,31.88-75.37,72.42-78.73v-52.89c-69.66,3.43-125.09,61.05-125.09,131.61  c0,72.79,58.95,131.79,131.67,131.79C628.34,373.49,685.9,318.01,689.33,248.29 M794.83,504.92c0-58.23-47.16-105.43-105.33-105.43  h-52.67v52.72h52.67c29.09,0,52.67,23.6,52.67,52.71c0,28.92-23.27,52.4-52.1,52.71h-53.23v52.72h52.67  C747.67,610.35,794.83,563.15,794.83,504.92"></path>	<path style="clip-path:url(#SVGID_00000003106944465457998990000006477718501262822058_);fill:#F58A1F;" d="M564.41,149.72v13.23  c38.36,3.18,68.91,33.76,72.08,72.17h13.24C646.51,189.42,610.06,152.94,564.41,149.72 M564.41,129.9v13.21  c49.29,3.25,88.68,42.68,91.92,92.01h13.2C666.26,178.5,620.98,133.19,564.41,129.9 M689.33,235.12  c-3.32-67.54-57.44-121.71-124.92-125.04v13.21c60.2,3.3,108.43,51.56,111.73,111.83H689.33z"></path></g></svg>